# xmcd
#
# Track frame offsets:
#	150
#	19485
#	37610
#	54712
#	81577
#	98805
#	112315
#	142040
#	158085
#	179525
#	194537
#	210645
#	227750
#	255557
#
# Disc length: 3632 seconds
#
# Revision: 0
# Processed by: cddbd v1.5.1PL2 Copyright (c) Steve Scherf et al.
# Submitted via: dBpowerAMP V4.0
#
DISCID=ca0e2e0e
DTITLE=Various Artist - The Best of Alligator - Great harp players
DYEAR=1999
DGENRE=Blues
TTITLE0=Charlie Musselwhite - River Hip Mamma
TTITLE1=Lazy Lester - I´m a man
TTITLE2=James Cotton - Superharp
TTITLE3=Junio Wells - Keep your hands out of my pockets
TTITLE4=Little Richards and The Nightcats - New Old Lady
TTITLE5=Raful Neal - Honest I do
TTITLE6=The Siegel - Schwall Band - Hey, Billie Jean
TTITLE7=Billy Boy Arnold - Fool for you
TTITLE8=Sonny Terry - Sonny´s whoopin´ the doop
TTITLE9=Cephas and Wiggins - No ice in my bourbon
TTITLE10=Kenny Neal - Gonna put you out of my misery
TTITLE11=Big Walter Horton - Have a good time
TTITLE12=William Clarke - Blues is killing me
TTITLE13=Carey Bell - Bell hop
EXTD=
EXTT0=
EXTT1=
EXTT2=
EXTT3=
EXTT4=
EXTT5=
EXTT6=
EXTT7=
EXTT8=
EXTT9=
EXTT10=
EXTT11=
EXTT12=
EXTT13=
PLAYORDER=
